<svg xmlns="http://www.w3.org/2000/svg" width="1024" height="1024">
  <path d="M290.56 9.344A32 32 0 0 1 313.152 0h397.696a32.007 32.007 0 0 1 22.592 9.344l281.216 281.216a31.991 31.991 0 0 1 9.344 22.592v397.696a31.998 31.998 0 0 1-9.344 22.592L733.44 1014.656a31.998 31.998 0 0 1-22.592 9.344H313.152a31.991 31.991 0 0 1-22.592-9.344L9.344 733.44A32.007 32.007 0 0 1 0 710.848V313.152a32 32 0 0 1 9.344-22.592L290.56 9.344zM326.4 64 64 326.4v371.2L326.4 960h371.2L960 697.6V326.4L697.6 64H326.4z"/>
  <path d="M297.344 297.349c2.973-2.98 6.504-5.344 10.391-6.958a31.982 31.982 0 0 1 24.53 0 31.988 31.988 0 0 1 10.391 6.958L512 466.756l169.344-169.407A32.046 32.046 0 0 1 704 287.964a32.048 32.048 0 0 1 22.656 9.385 32.115 32.115 0 0 1 6.946 10.394 32.083 32.083 0 0 1 0 24.524 32.105 32.105 0 0 1-6.946 10.394L557.248 512.004l169.408 169.344a32.137 32.137 0 0 1 6.946 10.394 32.079 32.079 0 0 1 0 24.524 32.094 32.094 0 0 1-6.946 10.394c-2.974 2.978-6.507 5.338-10.394 6.946s-8.055 2.441-12.262 2.441c-4.207 0-8.375-.832-12.262-2.441s-7.42-3.968-10.394-6.946L512 557.252 342.656 726.66c-2.975 2.978-6.508 5.338-10.395 6.946s-8.054 2.441-12.261 2.441c-4.208 0-8.374-.832-12.262-2.441s-7.419-3.968-10.394-6.946a32.046 32.046 0 0 1-9.385-22.656c0-4.207.829-8.371 2.439-12.262a32.083 32.083 0 0 1 6.946-10.394l169.408-169.344-169.408-169.343c-2.98-2.973-5.344-6.504-6.958-10.391a31.982 31.982 0 0 1 0-24.53 31.988 31.988 0 0 1 6.958-10.391z"/>
</svg>
